<?xml version="1.0" standalone="no"?>
<!DOCTYPE svg PUBLIC "-//W3C//DTD SVG 20010904//EN"
 "http://www.w3.org/TR/2001/REC-SVG-20010904/DTD/svg10.dtd">
<svg version="1.0" xmlns="http://www.w3.org/2000/svg"
 width="1052.000000pt" height="1052.000000pt" viewBox="0 0 1052.000000 1052.000000"
 preserveAspectRatio="xMidYMid meet">
<metadata>
Created by potrace 1.11, written by Peter Selinger 2001-2013
</metadata>
<g transform="translate(0.000000,1052.000000) scale(0.100000,-0.100000)"
fill="#000000" stroke="none">
<path d="M4153 9126 c-689 -402 -1253 -733 -1253 -736 0 -7 2496 -1434 2517
-1438 12 -3 13 173 7 1445 -3 796 -9 1451 -13 1454 -3 3 -570 -323 -1258 -725z"/>
<path d="M5646 9158 c-12 -1280 -12 -2208 0 -2208 20 0 2509 1427 2509 1439 0
10 -2476 1461 -2494 1461 -5 0 -11 -312 -15 -692z"/>
<path d="M2826 6709 c-3 -798 -5 -1454 -2 -1456 6 -7 2517 1431 2519 1442 1 9
-2459 1452 -2494 1462 -14 4 -16 -129 -23 -1448z"/>
<path d="M6988 7432 c-686 -400 -1247 -731 -1247 -737 0 -9 2478 -1429 2507
-1437 11 -2 13 198 13 1102 -1 1096 -9 1800 -20 1800 -3 -1 -567 -328 -1253
-728z"/>
<path d="M4143 5767 c-962 -562 -1249 -735 -1240 -744 13 -12 2473 -1418 2500
-1429 16 -6 17 48 17 707 0 895 -11 2199 -19 2198 -3 -1 -569 -330 -1258 -732z"/>
<path d="M5616 6188 c-10 -528 -12 -2598 -3 -2598 15 0 2517 1432 2517 1440 0
4 -548 327 -1217 718 -670 390 -1234 719 -1254 731 l-37 22 -6 -313z"/>
<path d="M2827 4273 c-10 -731 -9 -2373 1 -2373 15 0 2506 1426 2509 1437 3 9
-2476 1463 -2495 1463 -5 0 -12 -237 -15 -527z"/>
<path d="M4118 2432 c-686 -400 -1246 -731 -1244 -736 2 -10 2494 -1436 2508
-1436 4 0 8 368 8 818 0 939 -11 2082 -19 2082 -3 -1 -567 -328 -1253 -728z"/>
</g>
</svg>
