<svg id="Layer_4" data-name="Layer 4" xmlns="http://www.w3.org/2000/svg" viewBox="0 0 683.34 1252.14"><defs><style>.cls-1{fill:#98bad9;}.cls-2{fill:#2b71b1;}.cls-3{fill:#053764;}</style></defs><polygon class="cls-1" points="328.41 405.38 255.16 363.09 255.16 447.68 328.41 405.38"/><polygon class="cls-2" points="247.53 358.31 174.28 316.02 174.28 400.6 247.53 358.31"/><polygon class="cls-1" points="247.53 452.64 174.28 410.35 174.28 494.94 247.53 452.64"/><polygon class="cls-1" points="175.28 405.38 248.53 363.09 248.53 447.68 175.28 405.38"/><polygon class="cls-1" points="154.67 510.38 81.42 468.09 81.42 552.68 154.67 510.38"/><polygon class="cls-1" points="73.79 463.31 0.54 421.02 0.54 505.6 73.79 463.31"/><polygon class="cls-1" points="73.79 557.64 0.54 515.35 0.54 599.94 73.79 557.64"/><polygon class="cls-1" points="1.54 510.38 74.79 468.09 74.79 552.68 1.54 510.38"/><polygon class="cls-2" points="154.67 305.41 81.42 263.12 81.42 347.7 154.67 305.41"/><polygon class="cls-3" points="73.79 258.33 0.54 216.04 0.54 300.63 73.79 258.33"/><polygon class="cls-1" points="73.79 352.67 0.54 310.38 0.54 394.96 73.79 352.67"/><polygon class="cls-1" points="1.54 305.41 74.79 263.12 74.79 347.7 1.54 305.41"/><polygon class="cls-1" points="7.35 407.2 80.6 364.9 80.6 449.49 7.35 407.2"/><polygon class="cls-1" points="88.23 360.13 161.48 317.83 161.48 402.42 88.23 360.13"/><polygon class="cls-1" points="88.23 454.46 161.48 412.16 161.48 496.75 88.23 454.46"/><polygon class="cls-3" points="160.48 407.2 87.23 364.9 87.23 449.49 160.48 407.2"/><polygon class="cls-1" points="680.54 621.75 607.29 579.46 607.29 664.04 680.54 621.75"/><polygon class="cls-1" points="599.66 574.68 526.41 532.38 526.41 616.97 599.66 574.68"/><polygon class="cls-2" points="599.66 669.01 526.41 626.72 526.41 711.3 599.66 669.01"/><polygon class="cls-1" points="527.41 621.75 600.66 579.46 600.66 664.04 527.41 621.75"/><polygon class="cls-1" points="506.8 726.75 433.55 684.46 433.55 769.04 506.8 726.75"/><polygon class="cls-2" points="425.92 679.68 352.67 637.38 352.67 721.97 425.92 679.68"/><polygon class="cls-1" points="425.92 774.01 352.67 731.72 352.67 816.3 425.92 774.01"/><polygon class="cls-3" points="353.67 726.75 426.92 684.46 426.92 769.04 353.67 726.75"/><polygon class="cls-1" points="506.8 521.78 433.55 479.48 433.55 564.07 506.8 521.78"/><polygon class="cls-2" points="425.92 474.7 352.67 432.41 352.67 517 425.92 474.7"/><polygon class="cls-1" points="425.92 569.04 352.67 526.74 352.67 611.33 425.92 569.04"/><polygon class="cls-1" points="353.67 521.78 426.92 479.48 426.92 564.07 353.67 521.78"/><polygon class="cls-1" points="359.48 623.57 432.73 581.27 432.73 665.86 359.48 623.57"/><polygon class="cls-3" points="440.36 576.49 513.61 534.2 513.61 618.79 440.36 576.49"/><polygon class="cls-1" points="440.36 670.83 513.61 628.53 513.61 713.12 440.36 670.83"/><polygon class="cls-1" points="512.61 623.57 439.36 581.27 439.36 665.86 512.61 623.57"/><polygon class="cls-1" points="679.54 190.13 606.29 147.84 606.29 232.43 679.54 190.13"/><polygon class="cls-1" points="598.66 143.06 525.41 100.77 525.41 185.35 598.66 143.06"/><polygon class="cls-1" points="598.66 237.39 525.41 195.1 525.41 279.69 598.66 237.39"/><polygon class="cls-1" points="526.41 190.13 599.66 147.84 599.66 232.43 526.41 190.13"/><polygon class="cls-1" points="505.8 295.13 432.55 252.84 432.55 337.43 505.8 295.13"/><polygon class="cls-1" points="424.92 248.06 351.67 205.77 351.67 290.35 424.92 248.06"/><polygon class="cls-1" points="424.92 342.39 351.67 300.1 351.67 384.69 424.92 342.39"/><polygon class="cls-3" points="352.67 295.13 425.92 252.84 425.92 337.43 352.67 295.13"/><polygon class="cls-1" points="505.8 90.16 432.55 47.87 432.55 132.45 505.8 90.16"/><polygon class="cls-3" points="424.92 43.09 351.67 0.79 351.67 85.38 424.92 43.09"/><polygon class="cls-2" points="424.92 137.42 351.67 95.12 351.67 179.71 424.92 137.42"/><polygon class="cls-1" points="352.67 90.16 425.92 47.87 425.92 132.45 352.67 90.16"/><polygon class="cls-1" points="358.48 191.95 431.73 149.65 431.73 234.24 358.48 191.95"/><polygon class="cls-1" points="439.36 144.87 512.61 102.58 512.61 187.17 439.36 144.87"/><polygon class="cls-1" points="439.36 239.21 512.61 196.91 512.61 281.5 439.36 239.21"/><polygon class="cls-2" points="511.61 191.95 438.36 149.65 438.36 234.24 511.61 191.95"/><polygon class="cls-1" points="328.42 841.61 255.17 799.32 255.17 883.91 328.42 841.61"/><polygon class="cls-3" points="247.54 794.54 174.29 752.25 174.29 836.83 247.54 794.54"/><polygon class="cls-1" points="247.54 888.87 174.29 846.58 174.29 931.17 247.54 888.87"/><polygon class="cls-1" points="175.29 841.61 248.54 799.32 248.54 883.91 175.29 841.61"/><polygon class="cls-1" points="154.68 946.61 81.43 904.32 81.43 988.91 154.68 946.61"/><polygon class="cls-1" points="73.8 899.54 0.55 857.25 0.55 941.83 73.8 899.54"/><polygon class="cls-1" points="73.8 993.87 0.55 951.58 0.55 1036.17 73.8 993.87"/><polygon class="cls-3" points="1.55 946.61 74.8 904.32 74.8 988.91 1.55 946.61"/><polygon class="cls-2" points="154.68 741.64 81.43 699.34 81.43 783.93 154.68 741.64"/><polygon class="cls-1" points="73.8 694.56 0.55 652.27 0.55 736.86 73.8 694.56"/><polygon class="cls-1" points="73.8 788.9 0.55 746.6 0.55 831.19 73.8 788.9"/><polygon class="cls-1" points="1.55 741.64 74.8 699.34 74.8 783.93 1.55 741.64"/><polygon class="cls-1" points="7.36 843.43 80.61 801.13 80.61 885.72 7.36 843.43"/><polygon class="cls-3" points="88.24 796.35 161.49 754.06 161.49 838.65 88.24 796.35"/><polygon class="cls-1" points="88.24 890.69 161.49 848.39 161.49 932.98 88.24 890.69"/><polygon class="cls-1" points="160.49 843.43 87.24 801.13 87.24 885.72 160.49 843.43"/><polygon class="cls-1" points="355.47 407.78 428.72 365.49 428.72 450.07 355.47 407.78"/><polygon class="cls-1" points="436.35 360.7 509.6 318.41 509.6 403 436.35 360.7"/><polygon class="cls-1" points="436.35 455.04 509.6 412.74 509.6 497.33 436.35 455.04"/><polygon class="cls-1" points="508.6 407.78 435.35 365.49 435.35 450.07 508.6 407.78"/><polygon class="cls-1" points="529.21 512.78 602.46 470.49 602.46 555.07 529.21 512.78"/><polygon class="cls-1" points="610.09 465.7 683.34 423.41 683.34 508 610.09 465.7"/><polygon class="cls-1" points="610.09 560.04 683.34 517.74 683.34 602.33 610.09 560.04"/><polygon class="cls-1" points="682.34 512.78 609.09 470.49 609.09 555.07 682.34 512.78"/><polygon class="cls-1" points="529.21 307.8 602.46 265.51 602.46 350.1 529.21 307.8"/><polygon class="cls-1" points="610.09 260.73 683.34 218.44 683.34 303.02 610.09 260.73"/><polygon class="cls-3" points="610.09 355.06 683.34 312.77 683.34 397.36 610.09 355.06"/><polygon class="cls-1" points="682.34 307.8 609.09 265.51 609.09 350.1 682.34 307.8"/><polygon class="cls-1" points="676.53 409.59 603.28 367.3 603.28 451.89 676.53 409.59"/><polygon class="cls-1" points="595.65 362.52 522.4 320.23 522.4 404.81 595.65 362.52"/><polygon class="cls-1" points="595.65 456.85 522.4 414.56 522.4 499.15 595.65 456.85"/><polygon class="cls-1" points="523.4 409.59 596.65 367.3 596.65 451.89 523.4 409.59"/><polygon class="cls-1" points="1.6 189.34 74.86 147.05 74.86 231.64 1.6 189.34"/><polygon class="cls-1" points="82.48 142.27 155.74 99.97 155.74 184.56 82.48 142.27"/><polygon class="cls-1" points="82.48 236.6 155.74 194.31 155.74 278.9 82.48 236.6"/><polygon class="cls-1" points="154.74 189.34 81.48 147.05 81.48 231.64 154.74 189.34"/><polygon class="cls-1" points="175.34 294.34 248.6 252.05 248.6 336.64 175.34 294.34"/><polygon class="cls-1" points="256.22 247.27 329.48 204.97 329.48 289.56 256.22 247.27"/><polygon class="cls-1" points="256.22 341.6 329.48 299.31 329.48 383.9 256.22 341.6"/><polygon class="cls-1" points="328.48 294.34 255.22 252.05 255.22 336.64 328.48 294.34"/><polygon class="cls-1" points="175.34 89.37 248.6 47.07 248.6 131.66 175.34 89.37"/><polygon class="cls-1" points="256.22 42.29 329.48 0 329.48 84.59 256.22 42.29"/><polygon class="cls-1" points="256.22 136.63 329.48 94.33 329.48 178.92 256.22 136.63"/><polygon class="cls-1" points="328.48 89.37 255.22 47.07 255.22 131.66 328.48 89.37"/><polygon class="cls-1" points="322.67 191.16 249.41 148.86 249.41 233.45 322.67 191.16"/><polygon class="cls-1" points="241.79 144.08 168.53 101.79 168.53 186.38 241.79 144.08"/><polygon class="cls-1" points="241.79 238.42 168.53 196.12 168.53 280.71 241.79 238.42"/><polygon class="cls-2" points="169.53 191.16 242.79 148.86 242.79 233.45 169.53 191.16"/><polygon class="cls-1" points="0 623.66 73.25 581.37 73.25 665.96 0 623.66"/><polygon class="cls-1" points="80.88 576.59 154.13 534.3 154.13 618.88 80.88 576.59"/><polygon class="cls-1" points="80.88 670.92 154.13 628.63 154.13 713.22 80.88 670.92"/><polygon class="cls-1" points="153.13 623.66 79.88 581.37 79.88 665.96 153.13 623.66"/><polygon class="cls-3" points="173.74 728.66 247 686.37 247 770.96 173.74 728.66"/><polygon class="cls-1" points="254.62 681.59 327.87 639.3 327.87 723.88 254.62 681.59"/><polygon class="cls-1" points="254.62 775.92 327.87 733.63 327.87 818.22 254.62 775.92"/><polygon class="cls-1" points="326.87 728.66 253.62 686.37 253.62 770.96 326.87 728.66"/><polygon class="cls-1" points="173.74 523.69 247 481.4 247 565.98 173.74 523.69"/><polygon class="cls-1" points="254.62 476.62 327.87 434.32 327.87 518.91 254.62 476.62"/><polygon class="cls-3" points="254.62 570.95 327.87 528.66 327.87 613.24 254.62 570.95"/><polygon class="cls-1" points="326.87 523.69 253.62 481.4 253.62 565.98 326.87 523.69"/><polygon class="cls-1" points="321.06 625.48 247.81 583.19 247.81 667.77 321.06 625.48"/><polygon class="cls-1" points="240.18 578.41 166.93 536.11 166.93 620.7 240.18 578.41"/><polygon class="cls-1" points="240.18 672.74 166.93 630.45 166.93 715.03 240.18 672.74"/><polygon class="cls-1" points="167.93 625.48 241.18 583.19 241.18 667.77 167.93 625.48"/><polygon class="cls-1" points="3.6 1057.59 76.86 1015.29 76.86 1099.88 3.6 1057.59"/><polygon class="cls-1" points="84.48 1010.51 157.74 968.22 157.74 1052.81 84.48 1010.51"/><polygon class="cls-1" points="84.48 1104.85 157.74 1062.55 157.74 1147.14 84.48 1104.85"/><polygon class="cls-1" points="156.74 1057.59 83.48 1015.29 83.48 1099.88 156.74 1057.59"/><polygon class="cls-1" points="177.34 1162.59 250.6 1120.29 250.6 1204.88 177.34 1162.59"/><polygon class="cls-1" points="258.22 1115.51 331.48 1073.22 331.48 1157.81 258.22 1115.51"/><polygon class="cls-3" points="258.22 1209.85 331.48 1167.55 331.48 1252.14 258.22 1209.85"/><polygon class="cls-1" points="330.48 1162.59 257.22 1120.29 257.22 1204.88 330.48 1162.59"/><polygon class="cls-2" points="177.34 957.61 250.6 915.32 250.6 999.91 177.34 957.61"/><polygon class="cls-1" points="258.22 910.54 331.48 868.25 331.48 952.83 258.22 910.54"/><polygon class="cls-1" points="258.22 1004.87 331.48 962.58 331.48 1047.17 258.22 1004.87"/><polygon class="cls-1" points="330.48 957.61 257.22 915.32 257.22 999.91 330.48 957.61"/><polygon class="cls-1" points="324.67 1059.4 251.41 1017.11 251.41 1101.7 324.67 1059.4"/><polygon class="cls-2" points="243.79 1012.33 170.53 970.03 170.53 1054.62 243.79 1012.33"/><polygon class="cls-1" points="243.79 1106.66 170.53 1064.37 170.53 1148.95 243.79 1106.66"/><polygon class="cls-1" points="171.53 1059.4 244.79 1017.11 244.79 1101.7 171.53 1059.4"/></svg>